<svg width="187" height="136" viewBox="0 0 187 136" fill="none" xmlns="http://www.w3.org/2000/svg">
<path d="M2.26314 130V112.545H5.95348V126.957H13.4364V130H2.26314ZM15.8121 130V116.909H19.4428V130H15.8121ZM17.636 115.222C17.0962 115.222 16.6332 115.043 16.2468 114.685C15.8661 114.321 15.6758 113.886 15.6758 113.381C15.6758 112.881 15.8661 112.452 16.2468 112.094C16.6332 111.73 17.0962 111.548 17.636 111.548C18.1758 111.548 18.636 111.73 19.0167 112.094C19.4031 112.452 19.5962 112.881 19.5962 113.381C19.5962 113.886 19.4031 114.321 19.0167 114.685C18.636 115.043 18.1758 115.222 17.636 115.222ZM33.2433 120.642L29.9194 120.847C29.8626 120.562 29.7404 120.307 29.5529 120.08C29.3654 119.847 29.1183 119.662 28.8114 119.526C28.5103 119.384 28.1495 119.312 27.729 119.312C27.1665 119.312 26.6921 119.432 26.3058 119.67C25.9194 119.903 25.7262 120.216 25.7262 120.608C25.7262 120.92 25.8512 121.185 26.1012 121.401C26.3512 121.616 26.7802 121.79 27.3881 121.92L29.7575 122.398C31.0302 122.659 31.979 123.08 32.604 123.659C33.229 124.239 33.5415 125 33.5415 125.943C33.5415 126.801 33.2887 127.554 32.783 128.202C32.283 128.849 31.5955 129.355 30.7205 129.719C29.8512 130.077 28.8484 130.256 27.712 130.256C25.979 130.256 24.5984 129.895 23.57 129.173C22.5472 128.446 21.9478 127.457 21.7717 126.207L25.3427 126.02C25.4506 126.548 25.712 126.952 26.1268 127.23C26.5415 127.503 27.0728 127.639 27.7205 127.639C28.3569 127.639 28.8683 127.517 29.2546 127.273C29.6467 127.023 29.8455 126.702 29.8512 126.31C29.8455 125.98 29.7063 125.71 29.4336 125.5C29.1609 125.284 28.7404 125.119 28.1722 125.006L25.9052 124.554C24.6268 124.298 23.6751 123.855 23.0501 123.224C22.4308 122.594 22.1211 121.79 22.1211 120.812C22.1211 119.972 22.3484 119.247 22.8029 118.639C23.2631 118.031 23.908 117.562 24.7376 117.233C25.5728 116.903 26.5501 116.739 27.6694 116.739C29.3228 116.739 30.6239 117.088 31.5728 117.787C32.5273 118.486 33.0842 119.437 33.2433 120.642ZM42.7908 116.909V119.636H34.9073V116.909H42.7908ZM36.6971 113.773H40.3278V125.977C40.3278 126.312 40.3789 126.574 40.4812 126.761C40.5835 126.943 40.7255 127.071 40.9073 127.145C41.0948 127.219 41.3107 127.256 41.555 127.256C41.7255 127.256 41.896 127.241 42.0664 127.213C42.2369 127.179 42.3675 127.153 42.4585 127.136L43.0295 129.838C42.8477 129.895 42.592 129.96 42.2624 130.034C41.9329 130.114 41.5323 130.162 41.0607 130.179C40.1857 130.213 39.4187 130.097 38.7596 129.83C38.1062 129.562 37.5977 129.148 37.234 128.585C36.8704 128.023 36.6914 127.312 36.6971 126.455V113.773ZM48.8888 130.247C48.0536 130.247 47.3093 130.102 46.6559 129.812C46.0025 129.517 45.4854 129.082 45.1048 128.509C44.7298 127.929 44.5423 127.207 44.5423 126.344C44.5423 125.616 44.6758 125.006 44.9428 124.511C45.2099 124.017 45.5735 123.619 46.0337 123.318C46.494 123.017 47.0167 122.79 47.6019 122.636C48.1928 122.483 48.8121 122.375 49.4599 122.312C50.2212 122.233 50.8349 122.159 51.3008 122.091C51.7667 122.017 52.1048 121.909 52.315 121.767C52.5252 121.625 52.6303 121.415 52.6303 121.136V121.085C52.6303 120.545 52.4599 120.128 52.119 119.832C51.7837 119.537 51.3065 119.389 50.6871 119.389C50.0337 119.389 49.5138 119.534 49.1275 119.824C48.7411 120.108 48.4854 120.466 48.3604 120.898L45.0025 120.625C45.1729 119.83 45.5082 119.142 46.0082 118.562C46.5082 117.977 47.1531 117.528 47.9428 117.216C48.7383 116.898 49.6587 116.739 50.7042 116.739C51.4315 116.739 52.1275 116.824 52.7923 116.994C53.4627 117.165 54.0565 117.429 54.5735 117.787C55.0962 118.145 55.5082 118.605 55.8093 119.168C56.1104 119.724 56.261 120.392 56.261 121.17V130H52.8178V128.185H52.7156C52.5053 128.594 52.2241 128.955 51.8718 129.267C51.5195 129.574 51.0962 129.815 50.6019 129.991C50.1076 130.162 49.5366 130.247 48.8888 130.247ZM49.9286 127.741C50.4627 127.741 50.9343 127.636 51.3434 127.426C51.7525 127.21 52.0735 126.92 52.3065 126.557C52.5394 126.193 52.6559 125.781 52.6559 125.321V123.932C52.5423 124.006 52.386 124.074 52.1871 124.136C51.994 124.193 51.7752 124.247 51.5309 124.298C51.2866 124.344 51.0423 124.386 50.7979 124.426C50.5536 124.46 50.332 124.491 50.1332 124.52C49.707 124.582 49.3349 124.682 49.0167 124.818C48.6985 124.955 48.4513 125.139 48.2752 125.372C48.0991 125.599 48.011 125.884 48.011 126.224C48.011 126.719 48.19 127.097 48.5479 127.358C48.9116 127.614 49.3718 127.741 49.9286 127.741ZM69.4563 130.213C68.462 130.213 67.5614 129.957 66.7546 129.446C65.9535 128.929 65.3171 128.17 64.8455 127.17C64.3796 126.165 64.1467 124.932 64.1467 123.472C64.1467 121.972 64.3881 120.724 64.8711 119.73C65.354 118.73 65.9961 117.983 66.7972 117.489C67.604 116.989 68.4876 116.739 69.4478 116.739C70.1808 116.739 70.7915 116.864 71.2802 117.114C71.7745 117.358 72.1722 117.665 72.4734 118.034C72.7802 118.398 73.0131 118.756 73.1722 119.108H73.283V112.545H76.9052V130H73.3256V127.903H73.1722C73.0018 128.267 72.7603 128.628 72.4478 128.986C72.141 129.338 71.7404 129.631 71.2461 129.864C70.7575 130.097 70.1609 130.213 69.4563 130.213ZM70.6069 127.324C71.1921 127.324 71.6864 127.165 72.0898 126.847C72.4989 126.523 72.8114 126.071 73.0273 125.491C73.2489 124.912 73.3597 124.233 73.3597 123.455C73.3597 122.676 73.2518 122 73.0359 121.426C72.82 120.852 72.5075 120.409 72.0984 120.097C71.6893 119.784 71.1921 119.628 70.6069 119.628C70.0103 119.628 69.5075 119.79 69.0984 120.114C68.6893 120.437 68.3796 120.886 68.1694 121.46C67.9592 122.034 67.854 122.699 67.854 123.455C67.854 124.216 67.9592 124.889 68.1694 125.474C68.3853 126.054 68.695 126.509 69.0984 126.838C69.5075 127.162 70.0103 127.324 70.6069 127.324ZM85.8562 130.256C84.5096 130.256 83.3505 129.983 82.3789 129.438C81.413 128.886 80.6687 128.108 80.146 127.102C79.6232 126.091 79.3619 124.895 79.3619 123.514C79.3619 122.168 79.6232 120.986 80.146 119.969C80.6687 118.952 81.4045 118.159 82.3533 117.591C83.3079 117.023 84.4272 116.739 85.7113 116.739C86.5749 116.739 87.3789 116.878 88.1232 117.156C88.8732 117.429 89.5266 117.841 90.0835 118.392C90.646 118.943 91.0835 119.636 91.396 120.472C91.7085 121.301 91.8647 122.273 91.8647 123.386V124.384H80.8107V122.134H88.4471C88.4471 121.611 88.3335 121.148 88.1062 120.744C87.8789 120.341 87.5636 120.026 87.1602 119.798C86.7624 119.565 86.2994 119.449 85.771 119.449C85.2198 119.449 84.7312 119.577 84.305 119.832C83.8846 120.082 83.555 120.42 83.3164 120.847C83.0778 121.267 82.9556 121.736 82.9499 122.253V124.392C82.9499 125.04 83.0692 125.599 83.3079 126.071C83.5522 126.543 83.896 126.906 84.3391 127.162C84.7823 127.418 85.3079 127.545 85.9158 127.545C86.3192 127.545 86.6886 127.489 87.0238 127.375C87.359 127.261 87.646 127.091 87.8846 126.864C88.1232 126.636 88.305 126.358 88.43 126.028L91.788 126.25C91.6175 127.057 91.2681 127.761 90.7397 128.364C90.217 128.96 89.5408 129.426 88.7113 129.761C87.8874 130.091 86.9357 130.256 85.8562 130.256ZM99.1921 115.588V112.545H113.527V115.588H108.184V130H104.536V115.588H99.1921ZM117.772 130.247C116.936 130.247 116.192 130.102 115.539 129.812C114.885 129.517 114.368 129.082 113.988 128.509C113.613 127.929 113.425 127.207 113.425 126.344C113.425 125.616 113.559 125.006 113.826 124.511C114.093 124.017 114.456 123.619 114.917 123.318C115.377 123.017 115.9 122.79 116.485 122.636C117.076 122.483 117.695 122.375 118.343 122.312C119.104 122.233 119.718 122.159 120.184 122.091C120.65 122.017 120.988 121.909 121.198 121.767C121.408 121.625 121.513 121.415 121.513 121.136V121.085C121.513 120.545 121.343 120.128 121.002 119.832C120.667 119.537 120.189 119.389 119.57 119.389C118.917 119.389 118.397 119.534 118.01 119.824C117.624 120.108 117.368 120.466 117.243 120.898L113.885 120.625C114.056 119.83 114.391 119.142 114.891 118.562C115.391 117.977 116.036 117.528 116.826 117.216C117.621 116.898 118.542 116.739 119.587 116.739C120.314 116.739 121.01 116.824 121.675 116.994C122.346 117.165 122.939 117.429 123.456 117.787C123.979 118.145 124.391 118.605 124.692 119.168C124.993 119.724 125.144 120.392 125.144 121.17V130H121.701V128.185H121.598C121.388 128.594 121.107 128.955 120.755 129.267C120.402 129.574 119.979 129.815 119.485 129.991C118.99 130.162 118.419 130.247 117.772 130.247ZM118.811 127.741C119.346 127.741 119.817 127.636 120.226 127.426C120.635 127.21 120.956 126.92 121.189 126.557C121.422 126.193 121.539 125.781 121.539 125.321V123.932C121.425 124.006 121.269 124.074 121.07 124.136C120.877 124.193 120.658 124.247 120.414 124.298C120.169 124.344 119.925 124.386 119.681 124.426C119.436 124.46 119.215 124.491 119.016 124.52C118.59 124.582 118.218 124.682 117.9 124.818C117.581 124.955 117.334 125.139 117.158 125.372C116.982 125.599 116.894 125.884 116.894 126.224C116.894 126.719 117.073 127.097 117.431 127.358C117.794 127.614 118.255 127.741 118.811 127.741ZM127.961 130V116.909H131.48V119.193H131.617C131.855 118.381 132.256 117.767 132.819 117.352C133.381 116.932 134.029 116.722 134.762 116.722C134.944 116.722 135.14 116.733 135.35 116.756C135.56 116.778 135.745 116.81 135.904 116.849V120.071C135.733 120.02 135.498 119.974 135.196 119.935C134.895 119.895 134.62 119.875 134.37 119.875C133.836 119.875 133.358 119.991 132.938 120.224C132.523 120.452 132.194 120.77 131.949 121.179C131.711 121.588 131.591 122.06 131.591 122.594V130H127.961ZM143.137 130.256C141.791 130.256 140.632 129.983 139.66 129.438C138.694 128.886 137.95 128.108 137.427 127.102C136.904 126.091 136.643 124.895 136.643 123.514C136.643 122.168 136.904 120.986 137.427 119.969C137.95 118.952 138.686 118.159 139.635 117.591C140.589 117.023 141.708 116.739 142.993 116.739C143.856 116.739 144.66 116.878 145.404 117.156C146.154 117.429 146.808 117.841 147.365 118.392C147.927 118.943 148.365 119.636 148.677 120.472C148.99 121.301 149.146 122.273 149.146 123.386V124.384H138.092V122.134H145.728C145.728 121.611 145.615 121.148 145.387 120.744C145.16 120.341 144.845 120.026 144.441 119.798C144.044 119.565 143.581 119.449 143.052 119.449C142.501 119.449 142.012 119.577 141.586 119.832C141.166 120.082 140.836 120.42 140.598 120.847C140.359 121.267 140.237 121.736 140.231 122.253V124.392C140.231 125.04 140.35 125.599 140.589 126.071C140.833 126.543 141.177 126.906 141.62 127.162C142.064 127.418 142.589 127.545 143.197 127.545C143.6 127.545 143.97 127.489 144.305 127.375C144.64 127.261 144.927 127.091 145.166 126.864C145.404 126.636 145.586 126.358 145.711 126.028L149.069 126.25C148.899 127.057 148.549 127.761 148.021 128.364C147.498 128.96 146.822 129.426 145.993 129.761C145.169 130.091 144.217 130.256 143.137 130.256ZM158.555 116.909V119.636H150.475V116.909H158.555ZM152.325 130V115.963C152.325 115.014 152.51 114.227 152.879 113.602C153.254 112.977 153.765 112.509 154.413 112.196C155.061 111.884 155.797 111.727 156.62 111.727C157.177 111.727 157.686 111.77 158.146 111.855C158.612 111.94 158.958 112.017 159.186 112.085L158.538 114.812C158.396 114.767 158.22 114.724 158.01 114.685C157.805 114.645 157.595 114.625 157.379 114.625C156.845 114.625 156.473 114.75 156.262 115C156.052 115.244 155.947 115.588 155.947 116.031V130H152.325ZM164.037 130.247C163.202 130.247 162.458 130.102 161.804 129.812C161.151 129.517 160.634 129.082 160.253 128.509C159.878 127.929 159.691 127.207 159.691 126.344C159.691 125.616 159.824 125.006 160.091 124.511C160.358 124.017 160.722 123.619 161.182 123.318C161.642 123.017 162.165 122.79 162.75 122.636C163.341 122.483 163.961 122.375 164.608 122.312C165.37 122.233 165.983 122.159 166.449 122.091C166.915 122.017 167.253 121.909 167.463 121.767C167.674 121.625 167.779 121.415 167.779 121.136V121.085C167.779 120.545 167.608 120.128 167.267 119.832C166.932 119.537 166.455 119.389 165.836 119.389C165.182 119.389 164.662 119.534 164.276 119.824C163.89 120.108 163.634 120.466 163.509 120.898L160.151 120.625C160.321 119.83 160.657 119.142 161.157 118.562C161.657 117.977 162.301 117.528 163.091 117.216C163.887 116.898 164.807 116.739 165.853 116.739C166.58 116.739 167.276 116.824 167.941 116.994C168.611 117.165 169.205 117.429 169.722 117.787C170.245 118.145 170.657 118.605 170.958 119.168C171.259 119.724 171.409 120.392 171.409 121.17V130H167.966V128.185H167.864C167.654 128.594 167.373 128.955 167.02 129.267C166.668 129.574 166.245 129.815 165.75 129.991C165.256 130.162 164.685 130.247 164.037 130.247ZM165.077 127.741C165.611 127.741 166.083 127.636 166.492 127.426C166.901 127.21 167.222 126.92 167.455 126.557C167.688 126.193 167.804 125.781 167.804 125.321V123.932C167.691 124.006 167.534 124.074 167.336 124.136C167.142 124.193 166.924 124.247 166.679 124.298C166.435 124.344 166.191 124.386 165.946 124.426C165.702 124.46 165.48 124.491 165.282 124.52C164.855 124.582 164.483 124.682 164.165 124.818C163.847 124.955 163.6 125.139 163.424 125.372C163.248 125.599 163.159 125.884 163.159 126.224C163.159 126.719 163.338 127.097 163.696 127.358C164.06 127.614 164.52 127.741 165.077 127.741ZM185.118 120.642L181.794 120.847C181.738 120.562 181.615 120.307 181.428 120.08C181.24 119.847 180.993 119.662 180.686 119.526C180.385 119.384 180.025 119.312 179.604 119.312C179.042 119.312 178.567 119.432 178.181 119.67C177.794 119.903 177.601 120.216 177.601 120.608C177.601 120.92 177.726 121.185 177.976 121.401C178.226 121.616 178.655 121.79 179.263 121.92L181.632 122.398C182.905 122.659 183.854 123.08 184.479 123.659C185.104 124.239 185.417 125 185.417 125.943C185.417 126.801 185.164 127.554 184.658 128.202C184.158 128.849 183.471 129.355 182.596 129.719C181.726 130.077 180.723 130.256 179.587 130.256C177.854 130.256 176.473 129.895 175.445 129.173C174.422 128.446 173.823 127.457 173.647 126.207L177.218 126.02C177.326 126.548 177.587 126.952 178.002 127.23C178.417 127.503 178.948 127.639 179.596 127.639C180.232 127.639 180.743 127.517 181.13 127.273C181.522 127.023 181.721 126.702 181.726 126.31C181.721 125.98 181.581 125.71 181.309 125.5C181.036 125.284 180.615 125.119 180.047 125.006L177.78 124.554C176.502 124.298 175.55 123.855 174.925 123.224C174.306 122.594 173.996 121.79 173.996 120.812C173.996 119.972 174.223 119.247 174.678 118.639C175.138 118.031 175.783 117.562 176.613 117.233C177.448 116.903 178.425 116.739 179.544 116.739C181.198 116.739 182.499 117.088 183.448 117.787C184.402 118.486 184.959 119.437 185.118 120.642Z" fill="black"/>
<path d="M122.167 12.5001H104.75C103 7.66675 98.4167 4.16675 93 4.16675C87.5833 4.16675 83 7.66675 81.25 12.5001H63.8333C59.25 12.5001 55.5 16.2501 55.5 20.8334V79.1668C55.5 83.7501 59.25 87.5001 63.8333 87.5001H122.167C126.75 87.5001 130.5 83.7501 130.5 79.1668V20.8334C130.5 16.2501 126.75 12.5001 122.167 12.5001ZM93 12.5001C95.2917 12.5001 97.1667 14.3751 97.1667 16.6667C97.1667 18.9584 95.2917 20.8334 93 20.8334C90.7083 20.8334 88.8333 18.9584 88.8333 16.6667C88.8333 14.3751 90.7083 12.5001 93 12.5001ZM72.1667 29.1667H113.833V20.8334H122.167V79.1668H63.8333V20.8334H72.1667V29.1667ZM93 70.8334V62.5001H113.833V70.8334H93ZM93 45.8334V37.5001H113.833V45.8334H93ZM76.3333 50.0001V37.5001H72.1667V33.3334H80.5V50.0001H76.3333ZM81.5417 58.3334C83.25 58.3334 84.6667 59.7501 84.6667 61.4584C84.6667 62.2918 84.3333 63.0834 83.7917 63.6251L76.8333 70.8334H84.6667V75.0001H72.1667V71.1668L80.5 62.5001H72.1667V58.3334H81.5417Z" fill="black"/>
</svg>
