<svg width="360" height="800" viewBox="0 0 360 800" fill="none" xmlns="http://www.w3.org/2000/svg">
<rect width="360" height="800" fill="#F3F5F8"/>
<path d="M88.7631 488V470.545H92.4535V484.957H99.9364V488H88.7631ZM102.312 488V474.909H105.943V488H102.312ZM104.136 473.222C103.596 473.222 103.133 473.043 102.747 472.685C102.366 472.321 102.176 471.886 102.176 471.381C102.176 470.881 102.366 470.452 102.747 470.094C103.133 469.73 103.596 469.548 104.136 469.548C104.676 469.548 105.136 469.73 105.517 470.094C105.903 470.452 106.096 470.881 106.096 471.381C106.096 471.886 105.903 472.321 105.517 472.685C105.136 473.043 104.676 473.222 104.136 473.222ZM119.743 478.642L116.419 478.847C116.363 478.562 116.24 478.307 116.053 478.08C115.865 477.847 115.618 477.662 115.311 477.526C115.01 477.384 114.65 477.312 114.229 477.312C113.667 477.312 113.192 477.432 112.806 477.67C112.419 477.903 112.226 478.216 112.226 478.608C112.226 478.92 112.351 479.185 112.601 479.401C112.851 479.616 113.28 479.79 113.888 479.92L116.257 480.398C117.53 480.659 118.479 481.08 119.104 481.659C119.729 482.239 120.042 483 120.042 483.943C120.042 484.801 119.789 485.554 119.283 486.202C118.783 486.849 118.096 487.355 117.221 487.719C116.351 488.077 115.348 488.256 114.212 488.256C112.479 488.256 111.098 487.895 110.07 487.173C109.047 486.446 108.448 485.457 108.272 484.207L111.843 484.02C111.951 484.548 112.212 484.952 112.627 485.23C113.042 485.503 113.573 485.639 114.221 485.639C114.857 485.639 115.368 485.517 115.755 485.273C116.147 485.023 116.346 484.702 116.351 484.31C116.346 483.98 116.206 483.71 115.934 483.5C115.661 483.284 115.24 483.119 114.672 483.006L112.405 482.554C111.127 482.298 110.175 481.855 109.55 481.224C108.931 480.594 108.621 479.79 108.621 478.812C108.621 477.972 108.848 477.247 109.303 476.639C109.763 476.031 110.408 475.562 111.238 475.233C112.073 474.903 113.05 474.739 114.169 474.739C115.823 474.739 117.124 475.088 118.073 475.787C119.027 476.486 119.584 477.437 119.743 478.642ZM129.291 474.909V477.636H121.407V474.909H129.291ZM123.197 471.773H126.828V483.977C126.828 484.312 126.879 484.574 126.981 484.761C127.083 484.943 127.225 485.071 127.407 485.145C127.595 485.219 127.811 485.256 128.055 485.256C128.225 485.256 128.396 485.241 128.566 485.213C128.737 485.179 128.868 485.153 128.958 485.136L129.529 487.838C129.348 487.895 129.092 487.96 128.762 488.034C128.433 488.114 128.032 488.162 127.561 488.179C126.686 488.213 125.919 488.097 125.26 487.83C124.606 487.562 124.098 487.148 123.734 486.585C123.37 486.023 123.191 485.312 123.197 484.455V471.773ZM135.389 488.247C134.554 488.247 133.809 488.102 133.156 487.812C132.502 487.517 131.985 487.082 131.605 486.509C131.23 485.929 131.042 485.207 131.042 484.344C131.042 483.616 131.176 483.006 131.443 482.511C131.71 482.017 132.074 481.619 132.534 481.318C132.994 481.017 133.517 480.79 134.102 480.636C134.693 480.483 135.312 480.375 135.96 480.312C136.721 480.233 137.335 480.159 137.801 480.091C138.267 480.017 138.605 479.909 138.815 479.767C139.025 479.625 139.13 479.415 139.13 479.136V479.085C139.13 478.545 138.96 478.128 138.619 477.832C138.284 477.537 137.806 477.389 137.187 477.389C136.534 477.389 136.014 477.534 135.627 477.824C135.241 478.108 134.985 478.466 134.86 478.898L131.502 478.625C131.673 477.83 132.008 477.142 132.508 476.562C133.008 475.977 133.653 475.528 134.443 475.216C135.238 474.898 136.159 474.739 137.204 474.739C137.931 474.739 138.627 474.824 139.292 474.994C139.963 475.165 140.556 475.429 141.074 475.787C141.596 476.145 142.008 476.605 142.309 477.168C142.61 477.724 142.761 478.392 142.761 479.17V488H139.318V486.185H139.216C139.005 486.594 138.724 486.955 138.372 487.267C138.02 487.574 137.596 487.815 137.102 487.991C136.608 488.162 136.037 488.247 135.389 488.247ZM136.429 485.741C136.963 485.741 137.434 485.636 137.843 485.426C138.252 485.21 138.574 484.92 138.806 484.557C139.039 484.193 139.156 483.781 139.156 483.321V481.932C139.042 482.006 138.886 482.074 138.687 482.136C138.494 482.193 138.275 482.247 138.031 482.298C137.787 482.344 137.542 482.386 137.298 482.426C137.054 482.46 136.832 482.491 136.633 482.52C136.207 482.582 135.835 482.682 135.517 482.818C135.199 482.955 134.951 483.139 134.775 483.372C134.599 483.599 134.511 483.884 134.511 484.224C134.511 484.719 134.69 485.097 135.048 485.358C135.412 485.614 135.872 485.741 136.429 485.741ZM155.956 488.213C154.962 488.213 154.061 487.957 153.255 487.446C152.453 486.929 151.817 486.17 151.346 485.17C150.88 484.165 150.647 482.932 150.647 481.472C150.647 479.972 150.888 478.724 151.371 477.73C151.854 476.73 152.496 475.983 153.297 475.489C154.104 474.989 154.988 474.739 155.948 474.739C156.681 474.739 157.292 474.864 157.78 475.114C158.275 475.358 158.672 475.665 158.973 476.034C159.28 476.398 159.513 476.756 159.672 477.108H159.783V470.545H163.405V488H159.826V485.903H159.672C159.502 486.267 159.26 486.628 158.948 486.986C158.641 487.338 158.24 487.631 157.746 487.864C157.257 488.097 156.661 488.213 155.956 488.213ZM157.107 485.324C157.692 485.324 158.186 485.165 158.59 484.847C158.999 484.523 159.311 484.071 159.527 483.491C159.749 482.912 159.86 482.233 159.86 481.455C159.86 480.676 159.752 480 159.536 479.426C159.32 478.852 159.007 478.409 158.598 478.097C158.189 477.784 157.692 477.628 157.107 477.628C156.51 477.628 156.007 477.79 155.598 478.114C155.189 478.437 154.88 478.886 154.669 479.46C154.459 480.034 154.354 480.699 154.354 481.455C154.354 482.216 154.459 482.889 154.669 483.474C154.885 484.054 155.195 484.509 155.598 484.838C156.007 485.162 156.51 485.324 157.107 485.324ZM172.356 488.256C171.01 488.256 169.85 487.983 168.879 487.438C167.913 486.886 167.169 486.108 166.646 485.102C166.123 484.091 165.862 482.895 165.862 481.514C165.862 480.168 166.123 478.986 166.646 477.969C167.169 476.952 167.904 476.159 168.853 475.591C169.808 475.023 170.927 474.739 172.211 474.739C173.075 474.739 173.879 474.878 174.623 475.156C175.373 475.429 176.027 475.841 176.583 476.392C177.146 476.943 177.583 477.636 177.896 478.472C178.208 479.301 178.365 480.273 178.365 481.386V482.384H167.311V480.134H174.947C174.947 479.611 174.833 479.148 174.606 478.744C174.379 478.341 174.064 478.026 173.66 477.798C173.262 477.565 172.799 477.449 172.271 477.449C171.72 477.449 171.231 477.577 170.805 477.832C170.385 478.082 170.055 478.42 169.816 478.847C169.578 479.267 169.456 479.736 169.45 480.253V482.392C169.45 483.04 169.569 483.599 169.808 484.071C170.052 484.543 170.396 484.906 170.839 485.162C171.282 485.418 171.808 485.545 172.416 485.545C172.819 485.545 173.189 485.489 173.524 485.375C173.859 485.261 174.146 485.091 174.385 484.864C174.623 484.636 174.805 484.358 174.93 484.028L178.288 484.25C178.118 485.057 177.768 485.761 177.24 486.364C176.717 486.96 176.041 487.426 175.211 487.761C174.387 488.091 173.436 488.256 172.356 488.256ZM185.692 473.588V470.545H200.027V473.588H194.684V488H191.036V473.588H185.692ZM204.272 488.247C203.436 488.247 202.692 488.102 202.039 487.812C201.385 487.517 200.868 487.082 200.488 486.509C200.113 485.929 199.925 485.207 199.925 484.344C199.925 483.616 200.059 483.006 200.326 482.511C200.593 482.017 200.956 481.619 201.417 481.318C201.877 481.017 202.4 480.79 202.985 480.636C203.576 480.483 204.195 480.375 204.843 480.312C205.604 480.233 206.218 480.159 206.684 480.091C207.15 480.017 207.488 479.909 207.698 479.767C207.908 479.625 208.013 479.415 208.013 479.136V479.085C208.013 478.545 207.843 478.128 207.502 477.832C207.167 477.537 206.689 477.389 206.07 477.389C205.417 477.389 204.897 477.534 204.51 477.824C204.124 478.108 203.868 478.466 203.743 478.898L200.385 478.625C200.556 477.83 200.891 477.142 201.391 476.562C201.891 475.977 202.536 475.528 203.326 475.216C204.121 474.898 205.042 474.739 206.087 474.739C206.814 474.739 207.51 474.824 208.175 474.994C208.846 475.165 209.439 475.429 209.956 475.787C210.479 476.145 210.891 476.605 211.192 477.168C211.493 477.724 211.644 478.392 211.644 479.17V488H208.201V486.185H208.098C207.888 486.594 207.607 486.955 207.255 487.267C206.902 487.574 206.479 487.815 205.985 487.991C205.49 488.162 204.919 488.247 204.272 488.247ZM205.311 485.741C205.846 485.741 206.317 485.636 206.726 485.426C207.135 485.21 207.456 484.92 207.689 484.557C207.922 484.193 208.039 483.781 208.039 483.321V481.932C207.925 482.006 207.769 482.074 207.57 482.136C207.377 482.193 207.158 482.247 206.914 482.298C206.669 482.344 206.425 482.386 206.181 482.426C205.936 482.46 205.715 482.491 205.516 482.52C205.09 482.582 204.718 482.682 204.4 482.818C204.081 482.955 203.834 483.139 203.658 483.372C203.482 483.599 203.394 483.884 203.394 484.224C203.394 484.719 203.573 485.097 203.931 485.358C204.294 485.614 204.755 485.741 205.311 485.741ZM214.461 488V474.909H217.98V477.193H218.117C218.355 476.381 218.756 475.767 219.319 475.352C219.881 474.932 220.529 474.722 221.262 474.722C221.444 474.722 221.64 474.733 221.85 474.756C222.06 474.778 222.245 474.81 222.404 474.849V478.071C222.233 478.02 221.998 477.974 221.696 477.935C221.395 477.895 221.12 477.875 220.87 477.875C220.336 477.875 219.858 477.991 219.438 478.224C219.023 478.452 218.694 478.77 218.449 479.179C218.211 479.588 218.091 480.06 218.091 480.594V488H214.461ZM229.637 488.256C228.291 488.256 227.132 487.983 226.16 487.438C225.194 486.886 224.45 486.108 223.927 485.102C223.404 484.091 223.143 482.895 223.143 481.514C223.143 480.168 223.404 478.986 223.927 477.969C224.45 476.952 225.186 476.159 226.135 475.591C227.089 475.023 228.208 474.739 229.493 474.739C230.356 474.739 231.16 474.878 231.904 475.156C232.654 475.429 233.308 475.841 233.865 476.392C234.427 476.943 234.865 477.636 235.177 478.472C235.49 479.301 235.646 480.273 235.646 481.386V482.384H224.592V480.134H232.228C232.228 479.611 232.115 479.148 231.887 478.744C231.66 478.341 231.345 478.026 230.941 477.798C230.544 477.565 230.081 477.449 229.552 477.449C229.001 477.449 228.512 477.577 228.086 477.832C227.666 478.082 227.336 478.42 227.098 478.847C226.859 479.267 226.737 479.736 226.731 480.253V482.392C226.731 483.04 226.85 483.599 227.089 484.071C227.333 484.543 227.677 484.906 228.12 485.162C228.564 485.418 229.089 485.545 229.697 485.545C230.1 485.545 230.47 485.489 230.805 485.375C231.14 485.261 231.427 485.091 231.666 484.864C231.904 484.636 232.086 484.358 232.211 484.028L235.569 484.25C235.399 485.057 235.049 485.761 234.521 486.364C233.998 486.96 233.322 487.426 232.493 487.761C231.669 488.091 230.717 488.256 229.637 488.256ZM245.055 474.909V477.636H236.975V474.909H245.055ZM238.825 488V473.963C238.825 473.014 239.01 472.227 239.379 471.602C239.754 470.977 240.265 470.509 240.913 470.196C241.561 469.884 242.297 469.727 243.12 469.727C243.677 469.727 244.186 469.77 244.646 469.855C245.112 469.94 245.458 470.017 245.686 470.085L245.038 472.812C244.896 472.767 244.72 472.724 244.51 472.685C244.305 472.645 244.095 472.625 243.879 472.625C243.345 472.625 242.973 472.75 242.762 473C242.552 473.244 242.447 473.588 242.447 474.031V488H238.825ZM250.537 488.247C249.702 488.247 248.958 488.102 248.304 487.812C247.651 487.517 247.134 487.082 246.753 486.509C246.378 485.929 246.191 485.207 246.191 484.344C246.191 483.616 246.324 483.006 246.591 482.511C246.858 482.017 247.222 481.619 247.682 481.318C248.142 481.017 248.665 480.79 249.25 480.636C249.841 480.483 250.461 480.375 251.108 480.312C251.87 480.233 252.483 480.159 252.949 480.091C253.415 480.017 253.753 479.909 253.963 479.767C254.174 479.625 254.279 479.415 254.279 479.136V479.085C254.279 478.545 254.108 478.128 253.767 477.832C253.432 477.537 252.955 477.389 252.336 477.389C251.682 477.389 251.162 477.534 250.776 477.824C250.39 478.108 250.134 478.466 250.009 478.898L246.651 478.625C246.821 477.83 247.157 477.142 247.657 476.562C248.157 475.977 248.801 475.528 249.591 475.216C250.387 474.898 251.307 474.739 252.353 474.739C253.08 474.739 253.776 474.824 254.441 474.994C255.111 475.165 255.705 475.429 256.222 475.787C256.745 476.145 257.157 476.605 257.458 477.168C257.759 477.724 257.909 478.392 257.909 479.17V488H254.466V486.185H254.364C254.154 486.594 253.873 486.955 253.52 487.267C253.168 487.574 252.745 487.815 252.25 487.991C251.756 488.162 251.185 488.247 250.537 488.247ZM251.577 485.741C252.111 485.741 252.583 485.636 252.992 485.426C253.401 485.21 253.722 484.92 253.955 484.557C254.188 484.193 254.304 483.781 254.304 483.321V481.932C254.191 482.006 254.034 482.074 253.836 482.136C253.642 482.193 253.424 482.247 253.179 482.298C252.935 482.344 252.691 482.386 252.446 482.426C252.202 482.46 251.98 482.491 251.782 482.52C251.355 482.582 250.983 482.682 250.665 482.818C250.347 482.955 250.1 483.139 249.924 483.372C249.748 483.599 249.659 483.884 249.659 484.224C249.659 484.719 249.838 485.097 250.196 485.358C250.56 485.614 251.02 485.741 251.577 485.741ZM271.618 478.642L268.294 478.847C268.238 478.562 268.115 478.307 267.928 478.08C267.74 477.847 267.493 477.662 267.186 477.526C266.885 477.384 266.525 477.312 266.104 477.312C265.542 477.312 265.067 477.432 264.681 477.67C264.294 477.903 264.101 478.216 264.101 478.608C264.101 478.92 264.226 479.185 264.476 479.401C264.726 479.616 265.155 479.79 265.763 479.92L268.132 480.398C269.405 480.659 270.354 481.08 270.979 481.659C271.604 482.239 271.917 483 271.917 483.943C271.917 484.801 271.664 485.554 271.158 486.202C270.658 486.849 269.971 487.355 269.096 487.719C268.226 488.077 267.223 488.256 266.087 488.256C264.354 488.256 262.973 487.895 261.945 487.173C260.922 486.446 260.323 485.457 260.147 484.207L263.718 484.02C263.826 484.548 264.087 484.952 264.502 485.23C264.917 485.503 265.448 485.639 266.096 485.639C266.732 485.639 267.243 485.517 267.63 485.273C268.022 485.023 268.221 484.702 268.226 484.31C268.221 483.98 268.081 483.71 267.809 483.5C267.536 483.284 267.115 483.119 266.547 483.006L264.28 482.554C263.002 482.298 262.05 481.855 261.425 481.224C260.806 480.594 260.496 479.79 260.496 478.812C260.496 477.972 260.723 477.247 261.178 476.639C261.638 476.031 262.283 475.562 263.113 475.233C263.948 474.903 264.925 474.739 266.044 474.739C267.698 474.739 268.999 475.088 269.948 475.787C270.902 476.486 271.459 477.437 271.618 478.642Z" fill="black"/>
<path d="M209.167 362.5H191.75C190 357.667 185.417 354.167 180 354.167C174.583 354.167 170 357.667 168.25 362.5H150.833C146.25 362.5 142.5 366.25 142.5 370.833V429.167C142.5 433.75 146.25 437.5 150.833 437.5H209.167C213.75 437.5 217.5 433.75 217.5 429.167V370.833C217.5 366.25 213.75 362.5 209.167 362.5ZM180 362.5C182.292 362.5 184.167 364.375 184.167 366.667C184.167 368.958 182.292 370.833 180 370.833C177.708 370.833 175.833 368.958 175.833 366.667C175.833 364.375 177.708 362.5 180 362.5ZM159.167 379.167H200.833V370.833H209.167V429.167H150.833V370.833H159.167V379.167ZM180 420.833V412.5H200.833V420.833H180ZM180 395.833V387.5H200.833V395.833H180ZM163.333 400V387.5H159.167V383.333H167.5V400H163.333ZM168.542 408.333C170.25 408.333 171.667 409.75 171.667 411.458C171.667 412.292 171.333 413.083 170.792 413.625L163.833 420.833H171.667V425H159.167V421.167L167.5 412.5H159.167V408.333H168.542Z" fill="black"/>
</svg>
